<svg width="100%" height="100%" viewBox="0 0 166 166" fill="none" xmlns="http://www.w3.org/2000/svg">
<circle cx="83" cy="83" r="83" fill="#EDF0F5"/>
<path d="M101.272 148.254L94.8643 126.898H71.1355L64.7282 148.254H56.8982V153H109.102V148.254H101.272Z" fill="#E0E0DE"/>
<path d="M96.9998 134.017L94.8644 126.898H71.1356L69.0002 134.017H96.9998Z" fill="#D6D6D4"/>
<path d="M21.3052 31.9829C17.3739 31.9829 14.1865 35.1703 14.1865 39.1016V112.661H151.814V39.1016C151.814 35.1703 148.626 31.9829 144.695 31.9829H21.3052Z" fill="#348FD9"/>
<path d="M14.1865 107.915H151.814V112.661H14.1865V107.915Z" fill="#3086CD"/>
<path d="M14.1865 112.661V119.78C14.1865 123.711 17.3739 126.898 21.3052 126.898H144.695C148.626 126.898 151.814 123.711 151.814 119.78V112.661H14.1865Z" fill="#E0E0DE"/>
<path d="M130.458 13H35.5425C31.6112 13 28.4238 16.1874 28.4238 20.1186V112.661H137.576V20.1186C137.576 16.1874 134.389 13 130.458 13Z" fill="#60D1E0"/>
<path d="M40.2881 112.661H137.576V20.1187C137.572 18.5244 137.025 16.9788 136.027 15.7356L40.2881 112.661Z" fill="#5AC6D4"/>
<path d="M35.5425 20.1187H40.2882V24.8644H35.5425V20.1187Z" fill="#3A9CC9"/>
<path d="M45.0339 20.1187H49.7797V24.8644H45.0339V20.1187Z" fill="#3A9CC9"/>
<path d="M54.5254 20.1187H59.2712V24.8644H54.5254V20.1187Z" fill="#3A9CC9"/>
<path d="M54.5255 79.4404H111.475C116.716 79.4404 120.966 83.6903 120.966 88.932C120.966 94.1736 116.716 98.4235 111.475 98.4235H54.5255C49.2838 98.4235 45.0339 94.1736 45.0339 88.932C45.0339 83.6903 49.2838 79.4404 54.5255 79.4404Z" fill="#E0E0DE"/>
<path d="M80.6272 86.5596H85.3729V91.3053H80.6272V86.5596Z" fill="#3A9CC9"/>
<path d="M90.1187 86.5596H94.8644V91.3053H90.1187V86.5596Z" fill="#3A9CC9"/>
<path d="M71.1357 86.5596H75.8815V91.3053H71.1357V86.5596Z" fill="#3A9CC9"/>
<path d="M61.644 86.5596H66.3898V91.3053H61.644V86.5596Z" fill="#3A9CC9"/>
<path d="M52.1526 86.5596H56.8983V91.3053H52.1526V86.5596Z" fill="#3A9CC9"/>
<path d="M101.983 50.966C101.983 61.4504 93.4844 69.949 82.9999 69.949C72.5154 69.949 64.0168 61.4504 64.0168 50.966C64.0168 40.4815 72.5154 31.9829 82.9999 31.9829C93.4844 31.9829 101.983 40.4815 101.983 50.966Z" fill="#348FD9"/>
<path d="M90.1186 48.5933C90.1186 52.5245 86.9312 55.7119 83 55.7119C79.0687 55.7119 75.8813 52.5245 75.8813 48.5933C75.8813 44.662 79.0687 41.4746 83 41.4746C86.9312 41.4746 90.1186 44.662 90.1186 48.5933Z" fill="#FEC9A3"/>
<path d="M96.1887 64.601C94.007 59.2354 88.792 55.7271 83 55.7271C77.208 55.7271 71.993 59.2354 69.8113 64.601C77.1582 71.7313 88.8418 71.7313 96.1887 64.601Z" fill="#E94F4F"/>
<path d="M28.4238 107.915H137.576V112.661H28.4238V107.915Z" fill="#5AC6D4"/>
<path d="M133.628 110.352C132.249 110.117 130.836 110.503 129.768 111.405C128.7 112.308 128.084 113.636 128.085 115.034C128.085 112.413 125.96 110.288 123.339 110.288C120.718 110.288 118.593 112.413 118.593 115.034C118.593 112.413 116.468 110.288 113.847 110.288C111.227 110.288 109.102 112.413 109.102 115.034V93.6781C109.155 91.2937 107.491 89.2139 105.153 88.7423C103.774 88.5071 102.362 88.893 101.294 89.7955C100.225 90.6981 99.609 92.0259 99.6102 93.4244V129.271L89.7178 123.339C88.4884 122.599 86.966 122.54 85.6834 123.183L85.3115 123.37C83.8945 124.081 83 125.529 83 127.114C82.9988 128.467 83.6523 129.738 84.753 130.524L99.6102 141.136H137.576V115.288C137.63 112.903 135.966 110.825 133.628 110.352Z" fill="#FEC9A3"/>
<path d="M137.576 31.9829H142.322V112.661H137.576V31.9829Z" fill="#3086CD"/>
<path d="M137.576 112.661H142.322V126.898H137.576V112.661Z" fill="#D6D6D4"/>
<path d="M134.492 110.583C125.237 127.867 109.235 136.421 98.5662 140.391L99.6101 141.136H137.576V115.288C137.604 113.237 136.384 111.375 134.492 110.583Z" fill="#FEC093"/>
</svg>
