<svg width="100%" height="100%" viewBox="0 0 172 172" fill="none" xmlns="http://www.w3.org/2000/svg">
<circle cx="86" cy="86" r="86" fill="#EDF0F5"/>
<path d="M107.493 129.795L103.812 126.358C103.609 126.715 103.347 127.05 103.025 127.351L88.5653 140.853C86.8995 142.199 84.7707 142.94 82.568 142.94H26.3121L23.942 145.165L22.6974 146.25C22.0663 146.8 21.7079 147.57 21.7079 148.376C21.7079 149.983 23.1025 151.285 24.8229 151.285H87.0366C89.2393 151.285 91.368 150.544 93.0339 149.198L107.493 135.696C109.238 134.067 109.238 131.425 107.493 129.795V129.795Z" fill="#F07281"/>
<path d="M156.583 97.3119L152.066 105.701C146.504 116.028 135.504 122.835 123.151 123.591L116.877 123.976C114.58 124.116 112.416 125.032 110.789 126.552L105.899 131.117L76.3953 104.522L79.8379 96.8703C80.693 94.9699 81.1518 92.9347 81.1902 90.8737L81.6828 64.3741L82.0019 48.552C82.0732 45.0218 85.158 42.195 88.9391 42.195C92.771 42.195 95.8775 45.0958 95.8775 48.674V73.0443L156.583 97.3119Z" fill="#FFCEBF"/>
<path d="M147.379 93.6329L143.128 101.528C137.567 111.856 126.566 118.662 114.213 119.419L107.939 119.803C105.642 119.944 103.479 120.859 101.851 122.379L99.0778 124.969L105.899 131.117L110.788 126.552C112.416 125.032 114.58 124.116 116.877 123.976L123.15 123.591C135.503 122.835 146.504 116.028 152.065 105.701L156.582 97.3119L147.379 93.6329Z" fill="#FFB09E"/>
<path d="M161 103.881C161 108.3 157.418 111.881 153 111.881H104C99.5817 111.881 96 108.3 96 103.881L96 14.1187C96 9.70037 99.5817 6.11865 104 6.11865L153 6.11866C157.418 6.11866 161 9.70038 161 14.1187V103.881Z" fill="#3D6D93"/>
<path d="M138.936 11.7765C138.936 14.3676 136.686 16.4683 133.912 16.4683H122.811C120.036 16.4683 117.787 14.3676 117.787 11.7765C117.787 10.2431 116.455 9 114.813 9H104C101.239 9 99 11.2386 99 14V103.605C99 106.366 101.239 108.605 104 108.605H152.723C155.484 108.605 157.723 106.366 157.723 103.605V14C157.723 11.2386 155.484 9 152.723 9H141.909C140.267 9 138.936 10.2431 138.936 11.7765Z" fill="#EDF0F5"/>
<path d="M149.064 92.2525H106.937C104.21 92.2525 102 90.1884 102 87.6426V78.1107C102 64.7162 113.641 53.8579 128 53.8579C142.359 53.8579 154 64.7162 154 78.1107V87.6426C154 90.1884 151.79 92.2525 149.064 92.2525V92.2525Z" fill="#F58A97"/>
<path d="M128 53.8579C126.311 53.8579 124.662 54.0133 123.063 54.3C135.06 56.4519 144.126 66.2912 144.126 78.1107V87.6426C144.126 90.1884 141.916 92.2525 139.189 92.2525H149.063C151.789 92.2525 154 90.1884 154 87.6426V78.1107C154 64.7162 142.359 53.8579 128 53.8579V53.8579Z" fill="#F07281"/>
<path d="M128.006 57.2212H127.991C120.333 57.2212 114.124 51.4237 114.124 44.2719V38.1416L115.537 28.4004C115.537 24.2078 117.798 23.4232 122.288 23.4232L133.304 22.9254C137.794 22.9254 140.5 25.162 140.5 29.3546L141.874 38.1416V44.2719C141.874 51.4237 135.665 57.2212 128.006 57.2212V57.2212Z" fill="#FFCEBF"/>
<path d="M134.127 21.6546L123.871 20.9006C128.36 20.9006 132 24.2992 132 28.492V33.9122V44.2721C132 49.8022 128.286 54.5199 123.062 56.3762C124.594 56.9207 126.254 57.2214 127.991 57.2214H128.006C135.665 57.2214 141.873 51.4239 141.873 44.2721V38.1421L140.876 28.558C140.877 24.3652 138.617 21.6546 134.127 21.6546V21.6546Z" fill="#FFB09E"/>
<path d="M133.745 20.9009H122.254C117.765 20.9009 114.125 24.2995 114.125 28.4924V38.1421L125.883 34.5289C130.218 33.1965 134.971 33.8078 138.758 36.1856L141.875 38.1421V28.4924C141.874 24.2998 138.234 20.9009 133.745 20.9009V20.9009Z" fill="#E19974"/>
<path d="M133.745 20.9006H123.872C128.362 20.9006 132.001 24.2991 132.001 28.492V33.9122C134.39 34.1387 136.715 34.9025 138.759 36.1855L141.875 38.1421V28.4923C141.875 24.2994 138.235 20.9006 133.745 20.9006V20.9006Z" fill="#DC8758"/>
<rect x="102" y="82" width="52" height="24" rx="3" fill="white"/>
<circle cx="128" cy="94" r="7.5" stroke="#EDF0F5"/>
<circle cx="128" cy="94" r="6" fill="#8392B8"/>
<path d="M128.207 14.0205C129.566 14.0205 130.668 12.9915 130.668 11.7221C130.668 10.4528 129.566 9.42377 128.207 9.42377C126.848 9.42377 125.746 10.4528 125.746 11.7221C125.746 12.9915 126.848 14.0205 128.207 14.0205Z" fill="#335E80"/>
<path d="M165.771 55.5243H160.82V42.5024H165.771C169.621 42.5024 172 45.4175 172 49.0135C172 52.6092 169.621 55.5243 165.771 55.5243V55.5243Z" fill="#FFCEBF"/>
<path d="M165.77 68.5462H160.819V55.5244H165.77C169.621 55.5244 172 58.4395 172 62.0354C172 65.6314 169.621 68.5462 165.77 68.5462V68.5462Z" fill="#FFB09E"/>
<path d="M165.77 81.5684H160.819V68.5466H165.77C169.621 68.5466 172 71.4617 172 75.0576C172 78.6533 169.621 81.5684 165.77 81.5684Z" fill="#FFCEBF"/>
<path d="M165.77 94.59H160.819V81.5681H165.77C169.621 81.5681 172 84.4832 172 88.0792C172 91.6749 169.621 94.59 165.77 94.59Z" fill="#FFB09E"/>
<path d="M93.0339 149.199L107.493 135.697C109.238 134.067 109.238 131.425 107.493 129.796L76.9761 101.299C75.231 99.6698 72.4016 99.6698 70.6565 101.299L23.942 145.166L22.6974 146.251C22.0663 146.801 21.7079 147.571 21.7079 148.377C21.7079 149.983 23.1025 151.286 24.8229 151.286H87.0366C89.239 151.286 91.368 150.545 93.0339 149.199V149.199Z" fill="#F58A97"/>
</svg>
